<svg width="210" height="44" viewBox="0 0 210 44" fill="none" xmlns="http://www.w3.org/2000/svg">
<rect x="0.5" y="0.5" width="209" height="43" rx="21.5" stroke="#EEE511"/>
<path d="M30.96 15.8H37.856V17.752H33.152V20.088C33.3333 20.056 33.552 20.024 33.808 19.992C34.0747 19.96 34.336 19.944 34.592 19.944C35.1893 19.944 35.7387 20.0027 36.24 20.12C36.7413 20.2373 37.168 20.4347 37.52 20.712C37.8827 20.9787 38.1653 21.336 38.368 21.784C38.5707 22.2213 38.672 22.76 38.672 23.4C38.672 24.0293 38.5653 24.5787 38.352 25.048C38.1493 25.5173 37.8507 25.9067 37.456 26.216C37.072 26.5253 36.6027 26.76 36.048 26.92C35.504 27.08 34.8907 27.16 34.208 27.16C34.0267 27.16 33.7973 27.1547 33.52 27.144C33.2533 27.1333 32.9653 27.1173 32.656 27.096C32.3573 27.0747 32.0587 27.048 31.76 27.016C31.4613 26.984 31.1947 26.9413 30.96 26.888V15.8ZM34.368 25.352C34.6453 25.352 34.9013 25.32 35.136 25.256C35.3813 25.1813 35.5947 25.0747 35.776 24.936C35.9573 24.7867 36.1013 24.6 36.208 24.376C36.3147 24.152 36.368 23.88 36.368 23.56C36.368 23.176 36.3093 22.8667 36.192 22.632C36.0747 22.3973 35.9147 22.216 35.712 22.088C35.5093 21.9493 35.2747 21.8587 35.008 21.816C34.752 21.7733 34.4747 21.752 34.176 21.752C34.0267 21.752 33.84 21.768 33.616 21.8C33.392 21.8213 33.2373 21.8427 33.152 21.864V25.272C33.2693 25.304 33.4453 25.3253 33.68 25.336C33.9253 25.3467 34.1547 25.352 34.368 25.352ZM39.653 23C39.653 21.6453 39.9837 20.6053 40.645 19.88C41.3063 19.144 42.2343 18.776 43.429 18.776C44.069 18.776 44.6237 18.8773 45.093 19.08C45.5623 19.2827 45.9517 19.5707 46.261 19.944C46.5703 20.3067 46.7997 20.7493 46.949 21.272C47.109 21.7947 47.189 22.3707 47.189 23C47.189 24.3547 46.8583 25.4 46.197 26.136C45.5463 26.8613 44.6237 27.224 43.429 27.224C42.789 27.224 42.2343 27.1227 41.765 26.92C41.2957 26.7173 40.901 26.4347 40.581 26.072C40.2717 25.6987 40.037 25.2507 39.877 24.728C39.7277 24.2053 39.653 23.6293 39.653 23ZM41.797 23C41.797 23.352 41.829 23.6773 41.893 23.976C41.957 24.2747 42.053 24.536 42.181 24.76C42.309 24.984 42.4743 25.16 42.677 25.288C42.8903 25.4053 43.141 25.464 43.429 25.464C43.973 25.464 44.3783 25.2667 44.645 24.872C44.9117 24.4773 45.045 23.8533 45.045 23C45.045 22.264 44.9223 21.672 44.677 21.224C44.4317 20.7653 44.0157 20.536 43.429 20.536C42.917 20.536 42.517 20.728 42.229 21.112C41.941 21.496 41.797 22.1253 41.797 23ZM52.9828 20.84H51.3988C51.3348 21.5973 51.2601 22.3493 51.1748 23.096C51.0894 23.8427 50.9508 24.5147 50.7588 25.112C50.5774 25.6987 50.3268 26.1787 50.0068 26.552C49.6868 26.9147 49.2708 27.096 48.7588 27.096C48.1401 27.096 47.7027 27.016 47.4467 26.856L47.7027 25.128C47.8734 25.192 48.0334 25.224 48.1828 25.224C48.3961 25.224 48.5828 25.1333 48.7428 24.952C48.9028 24.7707 49.0361 24.4453 49.1428 23.976C49.2601 23.5067 49.3508 22.872 49.4148 22.072C49.4894 21.2613 49.5428 20.2373 49.5748 19H55.0628V27H52.9828V20.84ZM58.9451 25.256C59.2651 25.32 59.5691 25.352 59.8571 25.352C60.3691 25.352 60.7371 25.2667 60.9611 25.096C61.1958 24.9147 61.3131 24.6373 61.3131 24.264C61.3131 23.5707 60.8438 23.224 59.9051 23.224C59.5531 23.224 59.2331 23.2613 58.9451 23.336V25.256ZM58.9451 21.848C59.2011 21.8053 59.4571 21.7787 59.7131 21.768C59.9798 21.7467 60.2198 21.736 60.4331 21.736C60.9878 21.736 61.4571 21.8 61.8411 21.928C62.2251 22.0453 62.5345 22.216 62.7691 22.44C63.0145 22.664 63.1905 22.9307 63.2971 23.24C63.4038 23.5387 63.4571 23.864 63.4571 24.216C63.4571 25.1867 63.1691 25.912 62.5931 26.392C62.0171 26.872 61.0411 27.112 59.6651 27.112C59.0571 27.112 58.5291 27.1013 58.0811 27.08C57.6438 27.0587 57.2385 27.032 56.8651 27V19H58.9451V21.848ZM64.7089 27V19H66.7889V25.16H68.7889V19H70.8689V25.16H72.8689V19H74.9489V27H64.7089ZM83.1714 26.312C82.8514 26.568 82.414 26.7867 81.8594 26.968C81.3154 27.1387 80.734 27.224 80.1154 27.224C78.8247 27.224 77.8807 26.8507 77.2834 26.104C76.686 25.3467 76.3874 24.312 76.3874 23C76.3874 21.592 76.7234 20.536 77.3954 19.832C78.0674 19.128 79.0114 18.776 80.2274 18.776C80.6327 18.776 81.0274 18.8293 81.4114 18.936C81.7954 19.0427 82.1367 19.2187 82.4354 19.464C82.734 19.7093 82.974 20.04 83.1554 20.456C83.3367 20.872 83.4274 21.3893 83.4274 22.008C83.4274 22.232 83.4114 22.472 83.3794 22.728C83.358 22.984 83.3207 23.2507 83.2674 23.528H78.4674C78.4994 24.2 78.67 24.7067 78.9794 25.048C79.2994 25.3893 79.8114 25.56 80.5154 25.56C80.9527 25.56 81.342 25.496 81.6834 25.368C82.0354 25.2293 82.302 25.0907 82.4834 24.952L83.1714 26.312ZM80.1954 20.44C79.6514 20.44 79.246 20.6053 78.9794 20.936C78.7234 21.256 78.5687 21.688 78.5154 22.232H81.4914C81.534 21.656 81.4434 21.2133 81.2194 20.904C81.006 20.5947 80.6647 20.44 80.1954 20.44ZM93.7593 23.352L93.8393 22.216H93.7913L93.1033 23.384L90.2553 27H88.9433V19H91.0233V22.808L90.9273 23.896H90.9913L91.6473 22.76L94.5273 19H95.8393V27H93.7593V23.352ZM102.35 23.848H99.742V27H97.662V19H99.742V22.008H102.35V19H104.43V27H102.35V23.848ZM109.92 27.096C109.738 27.16 109.546 27.1973 109.344 27.208C109.152 27.2187 108.976 27.224 108.816 27.224C107.845 27.224 107.098 26.8773 106.576 26.184C106.053 25.4907 105.792 24.4293 105.792 23C105.792 21.6347 106.08 20.6 106.656 19.896C107.232 19.192 108.064 18.84 109.152 18.84C109.45 18.84 109.706 18.8613 109.92 18.904V15.8H111.968V18.92C112.16 18.888 112.33 18.8667 112.48 18.856C112.629 18.8453 112.773 18.84 112.912 18.84C113.968 18.84 114.762 19.1547 115.296 19.784C115.829 20.4027 116.096 21.4213 116.096 22.84C116.096 23.512 116.021 24.12 115.872 24.664C115.733 25.1973 115.525 25.656 115.248 26.04C114.97 26.424 114.629 26.7173 114.224 26.92C113.829 27.1227 113.37 27.224 112.848 27.224C112.752 27.224 112.608 27.2133 112.416 27.192C112.234 27.1813 112.085 27.1547 111.968 27.112V30.2H109.92V27.096ZM112.448 20.488C112.341 20.488 112.245 20.4987 112.16 20.52C112.085 20.5307 111.989 20.5467 111.872 20.568V25.528C111.957 25.5493 112.053 25.5653 112.16 25.576C112.277 25.576 112.4 25.576 112.528 25.576C113.04 25.576 113.413 25.368 113.648 24.952C113.893 24.5253 114.016 23.8213 114.016 22.84C114.016 22.008 113.898 21.4107 113.664 21.048C113.429 20.6747 113.024 20.488 112.448 20.488ZM109.36 25.576C109.477 25.576 109.584 25.5707 109.68 25.56C109.786 25.5387 109.898 25.5173 110.016 25.496V20.552C109.813 20.5093 109.605 20.488 109.392 20.488C108.901 20.488 108.522 20.68 108.256 21.064C108 21.4373 107.872 22.0827 107.872 23C107.872 23.832 107.989 24.472 108.224 24.92C108.469 25.3573 108.848 25.576 109.36 25.576ZM117.075 23C117.075 21.6453 117.406 20.6053 118.067 19.88C118.728 19.144 119.656 18.776 120.851 18.776C121.491 18.776 122.046 18.8773 122.515 19.08C122.984 19.2827 123.374 19.5707 123.683 19.944C123.992 20.3067 124.222 20.7493 124.371 21.272C124.531 21.7947 124.611 22.3707 124.611 23C124.611 24.3547 124.28 25.4 123.619 26.136C122.968 26.8613 122.046 27.224 120.851 27.224C120.211 27.224 119.656 27.1227 119.187 26.92C118.718 26.7173 118.323 26.4347 118.003 26.072C117.694 25.6987 117.459 25.2507 117.299 24.728C117.15 24.2053 117.075 23.6293 117.075 23ZM119.219 23C119.219 23.352 119.251 23.6773 119.315 23.976C119.379 24.2747 119.475 24.536 119.603 24.76C119.731 24.984 119.896 25.16 120.099 25.288C120.312 25.4053 120.563 25.464 120.851 25.464C121.395 25.464 121.8 25.2667 122.067 24.872C122.334 24.4773 122.467 23.8533 122.467 23C122.467 22.264 122.344 21.672 122.099 21.224C121.854 20.7653 121.438 20.536 120.851 20.536C120.339 20.536 119.939 20.728 119.651 21.112C119.363 21.496 119.219 22.1253 119.219 23ZM126.053 19H127.573L127.813 19.96H127.877C128.154 19.5547 128.479 19.256 128.853 19.064C129.237 18.872 129.701 18.776 130.245 18.776C131.247 18.776 131.999 19.096 132.501 19.736C133.002 20.3653 133.253 21.384 133.253 22.792C133.253 23.4747 133.173 24.0933 133.013 24.648C132.853 25.192 132.613 25.656 132.293 26.04C131.983 26.424 131.599 26.7173 131.141 26.92C130.693 27.1227 130.175 27.224 129.589 27.224C129.258 27.224 128.986 27.1973 128.773 27.144C128.559 27.1013 128.346 27.0267 128.133 26.92V30.2H126.053V19ZM129.621 20.536C129.215 20.536 128.895 20.6373 128.661 20.84C128.437 21.0427 128.261 21.3467 128.133 21.752V25.08C128.282 25.1973 128.442 25.2933 128.613 25.368C128.794 25.432 129.029 25.464 129.317 25.464C129.914 25.464 130.362 25.256 130.661 24.84C130.959 24.4133 131.109 23.7147 131.109 22.744C131.109 22.04 130.991 21.496 130.757 21.112C130.522 20.728 130.143 20.536 129.621 20.536ZM141.541 23.336L141.669 21.672H141.589L140.949 23.048L139.445 25.528H138.693L137.045 23.048L136.437 21.672H136.341L136.549 23.32V27H134.693V19H136.853L138.693 22.008L139.141 23.016H139.205L139.669 21.976L141.365 19H143.541V27H141.541V23.336ZM145.302 19.464C145.728 19.272 146.235 19.1227 146.822 19.016C147.408 18.8987 148.022 18.84 148.661 18.84C149.216 18.84 149.68 18.9093 150.054 19.048C150.427 19.176 150.72 19.3627 150.934 19.608C151.158 19.8533 151.312 20.1467 151.398 20.488C151.494 20.8293 151.542 21.2133 151.542 21.64C151.542 22.1093 151.526 22.584 151.494 23.064C151.462 23.5333 151.44 23.9973 151.43 24.456C151.43 24.9147 151.446 25.3627 151.478 25.8C151.51 26.2267 151.59 26.632 151.718 27.016H150.022L149.686 25.912H149.606C149.392 26.2427 149.094 26.5307 148.71 26.776C148.336 27.0107 147.851 27.128 147.254 27.128C146.88 27.128 146.544 27.0747 146.246 26.968C145.947 26.8507 145.691 26.6907 145.478 26.488C145.264 26.2747 145.099 26.0293 144.982 25.752C144.864 25.464 144.806 25.144 144.806 24.792C144.806 24.3013 144.912 23.8907 145.126 23.56C145.35 23.2187 145.664 22.9467 146.07 22.744C146.486 22.5307 146.976 22.3867 147.542 22.312C148.118 22.2267 148.758 22.2 149.462 22.232C149.536 21.6347 149.494 21.208 149.334 20.952C149.174 20.6853 148.816 20.552 148.262 20.552C147.846 20.552 147.403 20.5947 146.934 20.68C146.475 20.7653 146.096 20.8773 145.798 21.016L145.302 19.464ZM147.942 25.416C148.358 25.416 148.688 25.3253 148.934 25.144C149.179 24.952 149.36 24.7493 149.478 24.536V23.496C149.147 23.464 148.827 23.4587 148.518 23.48C148.219 23.5013 147.952 23.5493 147.718 23.624C147.483 23.6987 147.296 23.8053 147.158 23.944C147.019 24.0827 146.95 24.2587 146.95 24.472C146.95 24.7707 147.035 25.0053 147.206 25.176C147.387 25.336 147.632 25.416 147.942 25.416ZM161.095 28.824H159.575L159.335 27H153.287V19H155.367V25.16H157.847V19H159.927V25.16H161.095V28.824ZM167.041 23.352L167.121 22.216H167.073L166.385 23.384L163.537 27H162.225V19H164.305V22.808L164.209 23.896H164.273L164.929 22.76L167.809 19H169.121V27H167.041V23.352ZM175.759 23.352L175.839 22.216H175.791L175.103 23.384L172.255 27H170.943V19H173.023V22.808L172.927 23.896H172.991L173.647 22.76L176.527 19H177.839V27H175.759V23.352Z" fill="#C7E029"/>
</svg>
