<svg width="21" height="13" viewBox="0 0 21 13" fill="none" xmlns="http://www.w3.org/2000/svg">
<path d="M0.8 10.512C0.8 9.744 0.965333 9.088 1.296 8.544H1.44C1.42933 8.62933 1.424 8.71467 1.424 8.8C1.424 9.536 1.68533 10.1813 2.208 10.736C2.74133 11.28 3.46667 11.552 4.384 11.552C5.09867 11.552 5.65333 11.3813 6.048 11.04C6.45333 10.6987 6.656 10.2667 6.656 9.744C6.656 9.43467 6.55467 9.15733 6.352 8.912C6.16 8.66667 5.83467 8.39467 5.376 8.096L2.592 6.256C1.55733 5.56267 1.04 4.70933 1.04 3.696C1.04 3.58933 1.05067 3.48267 1.072 3.376C1.136 2.53333 1.46133 1.856 2.048 1.344C2.64533 0.831999 3.44 0.575999 4.432 0.575999C5.01867 0.575999 5.744 0.629333 6.608 0.735999H7.616L7.408 3.088H7.248C7.248 2.53333 7.04 2.09067 6.624 1.76C6.21867 1.41867 5.67467 1.248 4.992 1.248C4.16 1.248 3.55733 1.504 3.184 2.016C2.992 2.26133 2.896 2.50667 2.896 2.752C2.896 2.99733 2.944 3.20533 3.04 3.376C3.18933 3.65333 3.51467 3.952 4.016 4.272L7.072 6.256C8.032 6.88533 8.512 7.70667 8.512 8.72C8.512 9.85067 8.12267 10.72 7.344 11.328C6.576 11.9253 5.552 12.224 4.272 12.224C3.54667 12.224 2.87467 12.1387 2.256 11.968C1.648 11.7867 1.2 11.5467 0.912 11.248C0.837333 11.0453 0.8 10.8 0.8 10.512ZM16.578 12.208C14.5193 12.208 12.9033 11.6907 11.73 10.656C10.5567 9.62133 9.97 8.20267 9.97 6.4C9.97 4.59733 10.5513 3.17867 11.714 2.144C12.8767 1.09867 14.4713 0.575999 16.498 0.575999C18.0447 0.575999 19.3727 0.863999 20.482 1.44L20.514 4.192H20.386C19.842 2.22933 18.5993 1.248 16.658 1.248C15.3993 1.248 14.402 1.70667 13.666 2.624C12.9407 3.53067 12.578 4.77333 12.578 6.352C12.578 7.93067 12.9247 9.184 13.618 10.112C14.322 11.04 15.2713 11.52 16.466 11.552C17.7033 11.552 18.6473 11.2427 19.298 10.624C19.9593 9.984 20.418 8.88533 20.674 7.328H20.802L20.962 10.08C20.098 11.5093 18.6367 12.2187 16.578 12.208Z" fill="#D9DAA0"/>
</svg>
