<svg width="110" height="19" viewBox="0 0 110 19" fill="none" xmlns="http://www.w3.org/2000/svg">
<path d="M0.928 17.472C0.896 17.344 0.88 17.0827 0.88 16.688C0.88 16.2933 0.949333 15.8933 1.088 15.488H1.28C1.26933 15.584 1.264 15.68 1.264 15.776C1.264 16.352 1.45067 16.8267 1.824 17.2C2.208 17.5627 2.736 17.744 3.408 17.744C4.112 17.744 4.66133 17.584 5.056 17.264C5.45067 16.9333 5.648 16.512 5.648 16C5.648 15.4773 5.456 15.0453 5.072 14.704L1.872 12.24C1.36 11.8027 1.104 11.216 1.104 10.48C1.104 10.064 1.216 9.68 1.44 9.328C1.67467 8.976 1.99467 8.69867 2.4 8.496C2.816 8.28267 3.30133 8.176 3.856 8.176C4.41067 8.176 4.90133 8.224 5.328 8.32H5.856L5.888 10.064H5.712C5.712 9.616 5.55733 9.26933 5.248 9.024C4.93867 8.77867 4.496 8.656 3.92 8.656C3.344 8.656 2.86933 8.80533 2.496 9.104C2.12267 9.392 1.936 9.77067 1.936 10.24C1.936 10.6987 2.144 11.0987 2.56 11.44L5.792 13.936C6.28267 14.3413 6.528 14.9067 6.528 15.632C6.528 16.3573 6.25067 16.9707 5.696 17.472C5.152 17.9733 4.48533 18.224 3.696 18.224C3.17333 18.224 2.65067 18.16 2.128 18.032C1.60533 17.904 1.20533 17.7173 0.928 17.472ZM12.5426 8.864V16.992C12.5533 17.3227 12.7133 17.568 13.0226 17.728C13.1613 17.8027 13.316 17.84 13.4866 17.84H13.6626V18H10.3666V17.84H10.5586C10.8146 17.84 11.0333 17.7547 11.2146 17.584C11.396 17.4133 11.492 17.2107 11.5026 16.976V8.864H8.60663C8.36129 8.864 8.16396 8.944 8.01463 9.104C7.87596 9.264 7.80663 9.456 7.80663 9.68V9.936H7.63063V8.128C7.84396 8.21333 8.14263 8.27733 8.52663 8.32C8.92129 8.36267 9.21463 8.384 9.40663 8.384H14.6226C15.3906 8.384 15.988 8.29867 16.4146 8.128V9.936H16.2386V9.68C16.2386 9.456 16.164 9.264 16.0146 9.104C15.8653 8.944 15.6733 8.864 15.4386 8.864H12.5426ZM27.2806 8.56H27.0406C26.7526 8.56 26.534 8.672 26.3846 8.896C26.3206 8.992 26.2833 9.104 26.2726 9.232V14.624C26.2726 15.7333 25.9153 16.6133 25.2006 17.264C24.4966 17.904 23.526 18.224 22.2886 18.224C21.0513 18.224 20.0753 17.904 19.3606 17.264C18.646 16.624 18.2886 15.7493 18.2886 14.64V9.248C18.2886 9.056 18.214 8.896 18.0646 8.768C17.9153 8.62933 17.734 8.56 17.5206 8.56H17.2806V8.4H20.3206V8.56H20.0806C19.8673 8.56 19.686 8.62933 19.5366 8.768C19.3873 8.896 19.3126 9.056 19.3126 9.248V14.448C19.3126 15.4827 19.574 16.2987 20.0966 16.896C20.63 17.4933 21.3766 17.792 22.3366 17.792C23.3073 17.792 24.0806 17.5093 24.6566 16.944C25.2433 16.3787 25.5366 15.6053 25.5366 14.624V9.248C25.526 9.04533 25.446 8.88 25.2966 8.752C25.158 8.624 24.982 8.56 24.7686 8.56H24.5286V8.4H27.2806V8.56ZM39.2038 13.2C39.2038 14.6827 38.7398 15.856 37.8118 16.72C36.8944 17.5733 35.6464 18 34.0678 18H28.7238V17.84H28.9318C29.1878 17.84 29.4011 17.7547 29.5718 17.584C29.7424 17.4133 29.8331 17.2107 29.8438 16.976V9.424C29.8331 9.168 29.7371 8.96 29.5558 8.8C29.3851 8.64 29.1718 8.56 28.9158 8.56H28.7238V8.4H34.0678C35.1131 8.4 36.0198 8.592 36.7878 8.976C37.5664 9.36 38.1638 9.91467 38.5798 10.64C38.9958 11.3653 39.2038 12.2187 39.2038 13.2ZM30.8838 8.88V17.52H34.0678C35.2944 17.52 36.2651 17.136 36.9798 16.368C37.6944 15.5893 38.0518 14.5333 38.0518 13.2C38.0518 11.8667 37.6944 10.816 36.9798 10.048C36.2651 9.26933 35.2944 8.88 34.0678 8.88H30.8838ZM49.7575 8.56H49.5655C49.2775 8.56 49.0002 8.64 48.7335 8.8C48.4775 8.94933 48.2642 9.14133 48.0935 9.376L45.0215 14.032V16.976C45.0215 17.2107 45.1122 17.4133 45.2935 17.584C45.4748 17.7547 45.6935 17.84 45.9495 17.84H46.1415V18H42.8615V17.84H43.0535C43.3095 17.84 43.5282 17.7547 43.7095 17.584C43.8908 17.4133 43.9815 17.2107 43.9815 16.976V14.016L41.0215 9.36C40.6588 8.82667 40.1682 8.56 39.5495 8.56H39.3575V8.4H43.0695V8.56H42.8775C42.6748 8.56 42.5255 8.624 42.4295 8.752C42.3442 8.88 42.3015 8.992 42.3015 9.088C42.3015 9.17333 42.3122 9.25333 42.3335 9.328L44.6695 13.472L47.1495 9.344C47.1815 9.25867 47.1975 9.17333 47.1975 9.088C47.1975 8.992 47.1495 8.88 47.0535 8.752C46.9682 8.624 46.8188 8.56 46.6055 8.56H46.4135V8.4H49.7575V8.56ZM69.9191 9.68V9.936H69.7431V8.128C69.8818 8.192 70.1325 8.25067 70.4951 8.304C70.8685 8.34667 71.2151 8.37333 71.5351 8.384H75.2151C75.5458 8.384 75.9031 8.36267 76.2871 8.32C76.6711 8.27733 76.9165 8.22933 77.0231 8.176V8.32L70.9431 17.52H75.3271C75.8178 17.5093 76.2338 17.424 76.5751 17.264C76.9165 17.0933 77.1725 16.8907 77.3431 16.656C77.5245 16.4213 77.7005 16.1067 77.8711 15.712H78.0311L77.1671 18H69.5031V17.856L75.4711 8.864H70.7031C70.3831 8.87467 70.1538 9.01333 70.0151 9.28C69.9511 9.408 69.9191 9.54133 69.9191 9.68ZM79.5415 17.84C79.7975 17.84 80.0108 17.76 80.1815 17.6C80.3628 17.4293 80.4588 17.2267 80.4695 16.992V9.392C80.4695 9.15733 80.3788 8.96 80.1975 8.8C80.0162 8.64 79.7975 8.56 79.5415 8.56H79.3175V8.4H83.9895C84.4268 8.4 84.8108 8.368 85.1415 8.304C85.4722 8.24 85.6855 8.18667 85.7815 8.144V9.968L85.6055 9.952V9.712C85.6055 9.488 85.5308 9.296 85.3815 9.136C85.2322 8.976 85.0402 8.896 84.8055 8.896H81.4775V12.96H84.2135C84.4268 12.96 84.5868 12.896 84.6935 12.768C84.8108 12.64 84.8695 12.48 84.8695 12.288V12.08H85.0455V14.32H84.8695V14.112C84.8695 13.8133 84.7575 13.6107 84.5335 13.504C84.4482 13.472 84.3575 13.4507 84.2615 13.44H81.4775V17.504H83.9895C84.4802 17.504 84.8908 17.4187 85.2215 17.248C85.5628 17.0773 85.8188 16.8747 85.9895 16.64C86.1708 16.4053 86.3522 16.096 86.5335 15.712H86.6935L85.8135 18H79.3175V17.84H79.5415ZM93.2519 18.224C91.6199 18.2133 90.3292 17.76 89.3799 16.864C88.4412 15.968 87.9719 14.7467 87.9719 13.2C87.9719 11.6427 88.4412 10.416 89.3799 9.52C90.3292 8.624 91.6199 8.176 93.2519 8.176C93.9132 8.176 94.5799 8.26133 95.2519 8.432C95.9239 8.60267 96.5052 8.83733 96.9959 9.136L97.3479 11.408H97.2039C96.7452 9.57333 95.4225 8.656 93.2359 8.656C91.9665 8.656 90.9639 9.06133 90.2279 9.872C89.4919 10.6827 89.1239 11.792 89.1239 13.2C89.1239 14.1173 89.2892 14.9173 89.6199 15.6C89.9505 16.272 90.4305 16.7947 91.0599 17.168C91.6892 17.5413 92.4199 17.728 93.2519 17.728C94.0839 17.728 94.8092 17.6053 95.4279 17.36C96.0572 17.104 96.5745 16.688 96.9799 16.112C97.3959 15.536 97.6305 14.8213 97.6839 13.968H97.8279L97.6519 16.16C97.2359 16.8 96.6332 17.3067 95.8439 17.68C95.0545 18.0427 94.1905 18.224 93.2519 18.224ZM106.453 17.84C106.698 17.84 106.912 17.76 107.093 17.6C107.274 17.4293 107.37 17.2267 107.381 16.992V13.504H101.477V16.992C101.488 17.2267 101.584 17.4293 101.765 17.6C101.946 17.76 102.16 17.84 102.405 17.84H102.597V18H99.3331V17.84H99.5251C99.7811 17.84 99.9945 17.7547 100.165 17.584C100.346 17.4133 100.442 17.2107 100.453 16.976V9.424C100.442 9.18933 100.346 8.98667 100.165 8.816C99.9838 8.64533 99.7705 8.56 99.5251 8.56H99.3331V8.4H102.597V8.56H102.405C102.16 8.56 101.946 8.64533 101.765 8.816C101.584 8.976 101.488 9.17333 101.477 9.408V13.024H107.381V9.424C107.381 9.18933 107.312 9.008 107.173 8.88C106.949 8.66667 106.709 8.56 106.453 8.56H106.261V8.4H109.525V8.56H109.333C109.088 8.56 108.874 8.64 108.693 8.8C108.512 8.96 108.416 9.15733 108.405 9.392V16.992C108.416 17.2267 108.485 17.4027 108.613 17.52C108.848 17.7333 109.088 17.84 109.333 17.84H109.525V18H106.261V17.84H106.453Z" fill="#D9DAA0"/>
<path d="M50.5119 9.576C50.5119 7.768 50.9279 6.208 51.7599 4.896C52.5919 3.584 53.7919 2.584 55.3599 1.896C56.9439 1.208 58.8799 0.863999 61.1679 0.863999C63.4559 0.863999 65.4639 1.232 67.1919 1.968L66.9519 6.552H66.7359C66.2719 4.936 65.5999 3.784 64.7199 3.096C63.8399 2.408 62.7439 2.064 61.4319 2.064C59.6559 2.064 58.2719 2.72 57.2799 4.032C56.2879 5.344 55.7919 7.176 55.7919 9.528C55.7919 11.864 56.2479 13.704 57.1599 15.048C58.0879 16.392 59.3679 17.088 60.9999 17.136C62.8879 17.136 64.2559 16.688 65.1039 15.792C65.9039 14.96 66.5279 13.36 66.9759 10.992H67.1679L67.7439 15.36C66.5599 17.344 64.3199 18.328 61.0239 18.312C57.7439 18.312 55.1679 17.552 53.2959 16.032C51.4399 14.496 50.5119 12.344 50.5119 9.576Z" fill="#CAD38D"/>
</svg>
